<svg id="title.svg" xmlns="http://www.w3.org/2000/svg" width="744.781" height="220.5" viewBox="0 0 744.781 220.5">
  <defs>
    <style>
      .cls-1 {
        fill: #a50d12;
      }

      .cls-1, .cls-2, .cls-3, .cls-4, .cls-5 {
        fill-rule: evenodd;
      }

      .cls-2 {
        fill: #ed1c24;
      }

      .cls-3 {
        fill: #680005;
      }

      .cls-5 {
        fill: #d62026;
      }
    </style>
  </defs>
  <g>
    <path class="cls-1" d="M602,351.423h94.6L702.729,314H602v37.422Z" transform="translate(-89.219 -232.5)"/>
    <path class="cls-2" d="M661.041,352.28c-1.2.191-2.181,5.2-3.416,6.085,34.337,21.391,72.812,30,112.124,37.459,0.986-6.2,1.91-12.012,2.829-17.794L834,422.077c-24.134,10.267-47.956,20.4-72.686,30.923l2.724-19.008c-4.355-.815-8.435-1.539-12.5-2.345-28.7-5.7-57.026-12.786-83.446-25.727a154.694,154.694,0,0,1-22.833-14.392c-7.274-5.317-10.441-12.537-8.482-22.017,2.076-10.039,3.341-20.264,4.562-30.455,0.747-6.238,15.748-6.222,21.233-8.765" transform="translate(-89.219 -232.5)"/>
    <path class="cls-3" d="M696.568,350.9s-35.177,1.661-37.865,7.4c-4.288-3.261-12.836-6.717-16.684-18.1-0.335-5.328,2.6-14.934,20.28-20.766,17.937-3.948,40.438-5.439,40.438-5.439Z" transform="translate(-89.219 -232.5)"/>
  </g>
  <path id="за_24_часа_" data-name="за 24 часа! " class="cls-4" d="M218.256,342.545v9.426h5.382a17.814,17.814,0,0,1,6.237.742,2.732,2.732,0,0,1,1.727,2.746,2.879,2.879,0,0,1-1.927,2.709,12.907,12.907,0,0,1-5.31.891,34.841,34.841,0,0,1-14.874-3.266v11.1a33.616,33.616,0,0,0,7.619,2.338,49.482,49.482,0,0,0,8.092.593q20.621,0,20.62-12.691a9.425,9.425,0,0,0-2.4-6.717,10.948,10.948,0,0,0-6.764-3.154v-0.371a10.077,10.077,0,0,0,5.436-3.359,8.942,8.942,0,0,0,2.019-5.844,9.4,9.4,0,0,0-4.71-8.443q-4.71-2.95-13.547-2.95a41.777,41.777,0,0,0-7.655.668,39.524,39.524,0,0,0-7.982,2.523l4.036,9.8a26.428,26.428,0,0,1,11.02-2.634q5.418,0,5.418,2.783a2.5,2.5,0,0,1-1.854,2.375,17.951,17.951,0,0,1-6.11.742h-4.473Zm69.672,26.533V341.506q0-7.2-4.346-11.207t-12.274-4.008q-10.983,0-18.183,3.785l4.109,9.574q6.947-3.117,11.456-3.117,5.019,0,5.018,5.2v0.593l-6.873.223q-8.692.408-13.274,3.692t-4.582,10q0,6.458,3.346,10.02t9.164,3.562a18.993,18.993,0,0,0,7.71-1.336,16.261,16.261,0,0,0,5.855-4.972h0.291l2.727,5.566h9.856Zm-24.439-13.359q0-5.01,7.019-5.27l3.273-.148v3.265a5.6,5.6,0,0,1-1.836,4.342,6.342,6.342,0,0,1-4.419,1.67q-4.037,0-4.037-3.859h0Zm85.63,1.261H329.008v-0.371q8.838-8.089,11.547-10.984a36.733,36.733,0,0,0,4.346-5.511,20.108,20.108,0,0,0,3.2-11.225,13.8,13.8,0,0,0-2.236-7.7,14.514,14.514,0,0,0-6.292-5.288,21.941,21.941,0,0,0-9.219-1.855,29.567,29.567,0,0,0-7.4.853,24.421,24.421,0,0,0-6.091,2.468,42.558,42.558,0,0,0-6.91,5.363l7.892,9.425a36.5,36.5,0,0,1,5.8-4.323,10.168,10.168,0,0,1,5.073-1.466,5.42,5.42,0,0,1,3.783,1.225,4.294,4.294,0,0,1,1.345,3.34,8.144,8.144,0,0,1-.673,3.265,17.8,17.8,0,0,1-2.382,3.73q-1.71,2.171-7.273,8.108l-12.983,13.4v9.648h38.585v-12.1Zm43.488-9.351h-5.855V314.824H373.478l-22.111,32.99v10.762h21.2v10.5h14.183v-10.5h5.855V347.629Zm-28.8,0,5.892-8.943a39.475,39.475,0,0,0,2.8-5.344h0.4a31.7,31.7,0,0,0-.2,3.173q-0.128,3.024-.127,4.805v6.309H363.8Zm48.682-20.6v15.512q0,7.347,3.582,10.854t11.074,3.507a32.538,32.538,0,0,0,13.055-3.117v15.289h14.22V327.033H440.2v17.256a30.372,30.372,0,0,1-9.6,1.856q-3.891,0-3.891-4.342v-14.77H412.486Zm86.619,42.045V341.506q0-7.2-4.346-11.207t-12.274-4.008q-10.983,0-18.183,3.785l4.109,9.574q6.946-3.117,11.456-3.117,5.017,0,5.018,5.2v0.593l-6.873.223q-8.693.408-13.274,3.692t-4.582,10q0,6.458,3.345,10.02t9.165,3.562a18.993,18.993,0,0,0,7.71-1.336,16.269,16.269,0,0,0,5.855-4.972h0.291l2.727,5.566h9.856Zm-24.439-13.359q0-5.01,7.019-5.27l3.273-.148v3.265a5.6,5.6,0,0,1-1.836,4.342,6.342,6.342,0,0,1-4.419,1.67q-4.036,0-4.037-3.859h0Zm64.217,10.39V354.568a21.791,21.791,0,0,1-12,3.711q-7.309,0-7.31-10.093,0-5.01,1.891-7.756a6.114,6.114,0,0,1,5.346-2.746,15.075,15.075,0,0,1,4.546.686,45.029,45.029,0,0,1,4.764,1.837l4.183-10.725a29.565,29.565,0,0,0-13.493-3.191q-10.4,0-16.037,5.752t-5.637,16.217q0,10.428,5.218,15.994t15.329,5.566a23.008,23.008,0,0,0,13.2-3.711h0Zm43.052,2.969V341.506q0-7.2-4.346-11.207t-12.274-4.008q-10.983,0-18.184,3.785l4.11,9.574q6.945-3.117,11.456-3.117,5.018,0,5.018,5.2v0.593l-6.873.223q-8.692.408-13.274,3.692t-4.582,10q0,6.458,3.345,10.02t9.165,3.562a19,19,0,0,0,7.71-1.336,16.269,16.269,0,0,0,5.855-4.972h0.291l2.727,5.566h9.856ZM557.5,355.719q0-5.01,7.019-5.27l3.273-.148v3.265a5.6,5.6,0,0,1-1.837,4.342,6.338,6.338,0,0,1-4.418,1.67q-4.037,0-4.037-3.859h0Zm46.034-40.895H587.819l1.855,35.106h12ZM590,368.132a8.013,8.013,0,0,0,5.637,1.874,7.756,7.756,0,0,0,5.546-1.874,6.83,6.83,0,0,0,1.982-5.214,7.024,7.024,0,0,0-1.909-5.251,7.707,7.707,0,0,0-5.619-1.874,7.964,7.964,0,0,0-5.71,1.874,6.915,6.915,0,0,0-1.964,5.251A6.73,6.73,0,0,0,590,368.132Z" transform="translate(-89.219 -232.5)"/>
  <path id="Выписки_из_ЕГРН_" data-name="Выписки из  ЕГРН  " class="cls-5" d="M89.227,286.594h19.831q8.991,0,14.23-4.145t5.238-11.544a14.181,14.181,0,0,0-2.229-8.363q-2.23-3.145-7.269-4.292v-0.37a8.886,8.886,0,0,0,5.927-3.738,13.314,13.314,0,0,0,2.23-7.955q0-7.142-5.094-10.417T105.722,232.5h-16.5v54.1Zm11.239-44.7h5.909q4.821,0,7.051,1.351a4.8,4.8,0,0,1,2.23,4.459q0,3.33-2.048,4.773t-6.617,1.443h-6.525V241.894Zm6.96,21.129q9.426,0,9.426,6.734,0,3.738-2.211,5.551t-6.852,1.813h-7.323v-14.1h6.96Zm40.018-17.8H136.386v41.369h16.786q8.881,0,13.342-3.312t4.459-9.861q0-6.142-4.459-9.177t-13.741-3.034h-5.329V245.225Zm5.112,33.561h-5.112v-9.769h4.967a11.623,11.623,0,0,1,5.619,1.074,3.7,3.7,0,0,1,1.885,3.478q0,5.217-7.359,5.217h0ZM187.9,245.225H176.846v41.369H187.9V245.225Zm9.745,0v41.369h11.057V253.7h14.683v32.9h11.094V245.225H197.649Zm46.543,0v41.369h13.269L276.1,257.658q-0.726,8.029-.725,12.433v16.5h10.695V245.225h-13.3l-18.708,29.01q0.834-10.065.834-12.655V245.225H244.192Zm74.985,41.443a17.659,17.659,0,0,0,5.42-2.405v-9.658a21.167,21.167,0,0,1-5.438,2.72,19.331,19.331,0,0,1-5.91.869q-8.628,0-8.628-12.137,0-12.507,8.628-12.507a15.376,15.376,0,0,1,4.5.685q2.247,0.685,4.858,1.757l3.263-8.732a27.654,27.654,0,0,0-12.617-2.812q-9.608,0-14.755,5.568t-5.148,16.115q0,21.2,18.924,21.2A29.891,29.891,0,0,0,319.177,286.668Zm24.011-21.351V245.225H332.131v41.369h11.057V265.613l16.568,20.981H372.3l-17.474-21.536,16.06-19.833H358.705Zm33.057-20.092v41.369h13.269l18.635-28.936q-0.726,8.029-.726,12.433v16.5h10.7V245.225H404.813l-18.707,29.01q0.834-10.065.834-12.655V245.225H376.245Zm69.05,0v41.369h13.269L477.2,257.658q-0.725,8.029-.725,12.433v16.5h10.695V245.225H473.863l-18.707,29.01q0.834-10.065.834-12.655V245.225H445.3Zm57.637,15.911v7.807h4.278q5.873,0,8.7,1.2t2.828,3.719q0,2.295-2.683,3.534t-8.085,1.239a32.162,32.162,0,0,1-7.2-.851,33.078,33.078,0,0,1-6.834-2.331v9.325q5.438,2.553,15.589,2.553a32.228,32.228,0,0,0,10.659-1.591,15.183,15.183,0,0,0,6.924-4.515,10.269,10.269,0,0,0,2.393-6.7,8.6,8.6,0,0,0-2.121-6.05q-2.121-2.313-7.087-3.571v-0.37q8.083-2.109,8.084-9.1a9.133,9.133,0,0,0-4.568-8.029q-4.567-2.961-12.145-2.96a52.025,52.025,0,0,0-9.063.721,45.3,45.3,0,0,0-8.375,2.387l3.263,7.881a33.313,33.313,0,0,1,6.435-1.924,32.842,32.842,0,0,1,6.326-.7q4.423,0,6.345,1a3.207,3.207,0,0,1,1.921,3q0,2.257-2.628,3.294t-8.9,1.036h-4.06Zm99.605,15.985H583.25v-13.95H601.2v-9.4H583.25V241.894h19.287v-9.4H572.011v54.1h30.526v-9.473Zm9.2-44.625v54.1h11.239V241.968h22.26V232.5h-33.5Zm51.039,9.4h5.112q4.6,0,6.761,1.924t2.157,5.958a7.383,7.383,0,0,1-2.574,6.087q-2.574,2.091-7.758,2.091h-3.7v-16.06Zm20.357-5.162q-5.022-4.236-14.665-4.236H651.538v54.1h11.239V267.352H667.6q9.861,0,15.208-4.625t5.348-13.358Q688.155,240.969,683.134,236.732Zm56.6-4.236h-11.2v21.2H707.544V232.5H696.305v54.1h11.239V263.245h20.991v23.349h11.2V232.5Z" transform="translate(-89.219 -232.5)"/>
</svg>
